<svg width="123" height="22" viewBox="0 0 123 22" fill="none" xmlns="http://www.w3.org/2000/svg">
<path d="M122.707 11.7071C123.098 11.3166 123.098 10.6834 122.707 10.2929L116.343 3.92894C115.953 3.53841 115.319 3.53841 114.929 3.92894C114.538 4.31946 114.538 4.95263 114.929 5.34315L120.586 11L114.929 16.6569C114.538 17.0474 114.538 17.6805 114.929 18.0711C115.319 18.4616 115.953 18.4616 116.343 18.0711L122.707 11.7071ZM82 12L122 12L122 10L82 10L82 12Z" fill="white"/>
<path d="M8.0625 17H5.9375V11.9922H3.13281V17H1.00781V5.57812H3.13281V10.1172H5.9375V5.57812H8.0625V17ZM16.2922 17L15.6359 14.1172H12.6594L12.0031 17H9.87813L12.7063 5.53125H15.5891L18.425 17H16.2922ZM15.2375 12.2344L14.6281 9.57812C14.5917 9.41667 14.5083 9.01302 14.3781 8.36719C14.2531 7.71615 14.1776 7.28125 14.1516 7.0625C14.0839 7.51042 13.9979 8.00521 13.8938 8.54688C13.7896 9.08333 13.5188 10.3125 13.0813 12.2344H15.2375ZM24.0219 7.27344C23.4125 7.27344 22.9307 7.63021 22.5766 8.34375C22.2276 9.05729 22.0531 10.0495 22.0531 11.3203C22.0531 13.9661 22.7432 15.2891 24.1234 15.2891C24.7276 15.2891 25.3604 15.0964 26.0219 14.7109V16.6016C25.4646 16.9714 24.751 17.1562 23.8813 17.1562C22.5948 17.1562 21.6052 16.6458 20.9125 15.625C20.225 14.599 19.8813 13.1589 19.8813 11.3047C19.8813 9.45052 20.2354 8.00521 20.9438 6.96875C21.6573 5.93229 22.6469 5.41406 23.9125 5.41406C24.3292 5.41406 24.7276 5.47135 25.1078 5.58594C25.4932 5.70052 25.9047 5.90104 26.3422 6.1875L25.6391 7.91406C25.4047 7.7526 25.1547 7.60677 24.8891 7.47656C24.6234 7.34115 24.3344 7.27344 24.0219 7.27344ZM31.9469 17H29.8297V7.44531H27.6422V5.57812H34.1344V7.44531H31.9469V17ZM36.8328 17.1562C36.2859 17.1562 35.8276 17.0833 35.4578 16.9375V15.0469C35.838 15.1979 36.2313 15.2734 36.6375 15.2734C37.2625 15.2734 37.7443 14.6927 38.0828 13.5312L35.1531 5.57812H37.3797L38.8328 10.0391C38.9526 10.4505 39.0281 10.8021 39.0594 11.0938H39.1219L39.2313 10.5625L39.3484 10.0391L40.5906 5.57812H42.7391L40.1922 13.6562C39.7859 14.9323 39.3198 15.8359 38.7938 16.3672C38.2729 16.8932 37.6193 17.1562 36.8328 17.1562ZM51.6094 17H49.5V7.44531H46.6797V17H44.5547V5.57812H51.6094V17ZM61.4875 17H59.3625V11.9922H56.5578V17H54.4328V5.57812H56.5578V10.1172H59.3625V5.57812H61.4875V17ZM69.7172 17L69.0609 14.1172H66.0844L65.4281 17H63.3031L66.1312 5.53125H69.0141L71.85 17H69.7172ZM68.6625 12.2344L68.0531 9.57812C68.0167 9.41667 67.9333 9.01302 67.8031 8.36719C67.6781 7.71615 67.6026 7.28125 67.5766 7.0625C67.5089 7.51042 67.4229 8.00521 67.3187 8.54688C67.2146 9.08333 66.9437 10.3125 66.5062 12.2344H68.6625Z" fill="white"/>
</svg>
