<svg width="134" height="22" viewBox="0 0 134 22" fill="none" xmlns="http://www.w3.org/2000/svg">
<path d="M0.292893 10.2929C-0.0976311 10.6834 -0.097631 11.3166 0.292893 11.7071L6.65685 18.0711C7.04738 18.4616 7.68054 18.4616 8.07107 18.0711C8.46159 17.6805 8.46159 17.0474 8.07107 16.6569L2.41421 11L8.07107 5.34315C8.46159 4.95262 8.46159 4.31946 8.07107 3.92894C7.68054 3.53841 7.04738 3.53841 6.65685 3.92894L0.292893 10.2929ZM41 10L1 10L1 12L41 12L41 10Z" fill="white"/>
<path d="M59.0625 17H56.9531V7.44531H54.1328V17H52.0078V5.57812H59.0625V17ZM69.7453 11.2734C69.7453 13.1641 69.3911 14.6172 68.6828 15.6328C67.9745 16.6484 66.9615 17.1562 65.6438 17.1562C64.3208 17.1562 63.3052 16.651 62.5969 15.6406C61.8885 14.625 61.5344 13.1641 61.5344 11.2578C61.5344 9.36719 61.8885 7.91927 62.5969 6.91406C63.3052 5.90365 64.326 5.39844 65.6594 5.39844C66.9771 5.39844 67.9875 5.90625 68.6906 6.92188C69.3938 7.93229 69.7453 9.38281 69.7453 11.2734ZM63.7063 11.2734C63.7063 12.5755 63.8703 13.5677 64.1984 14.25C64.5266 14.9323 65.0083 15.2734 65.6438 15.2734C66.925 15.2734 67.5656 13.9401 67.5656 11.2734C67.5656 8.60677 66.9302 7.27344 65.6594 7.27344C65.0135 7.27344 64.5266 7.61458 64.1984 8.29688C63.8703 8.97396 63.7063 9.96615 63.7063 11.2734ZM79.2719 17H77.1625V7.44531H74.3422V17H72.2172V5.57812H79.2719V17ZM87.2437 17H82.0953V5.57812H87.2437V7.41406H84.2203V10.1328H87.025V11.9766H84.2203V15.1406H87.2437V17ZM95.9344 9.09375C95.9344 10.3073 95.6271 11.2396 95.0125 11.8906C94.4031 12.5365 93.5203 12.8594 92.3641 12.8594H91.8328V17H89.7078V5.57812H92.6063C94.825 5.57812 95.9344 6.75 95.9344 9.09375ZM91.8328 11.0156H92.2391C92.7599 11.0156 93.1479 10.8724 93.4031 10.5859C93.6583 10.2995 93.7859 9.83073 93.7859 9.17969C93.7859 8.58073 93.6688 8.13802 93.4344 7.85156C93.2 7.5599 92.838 7.41406 92.3484 7.41406H91.8328V11.0156ZM103.328 17H98.1797V5.57812H103.328V7.41406H100.305V10.1328H103.109V11.9766H100.305V15.1406H103.328V17ZM114.112 20.2656H112.05V17H106.925V20.2656H104.862V15.125H105.534C106.607 12.276 107.295 9.09375 107.597 5.57812H112.816V15.125H114.112V20.2656ZM110.691 15.125V7.44531H109.394C109.264 8.71094 109.053 10.026 108.761 11.3906C108.474 12.75 108.136 13.9948 107.745 15.125H110.691ZM123.225 17H121.1V11.9922H118.295V17H116.17V5.57812H118.295V10.1172H121.1V5.57812H123.225V17ZM129.134 12.5547L127.361 17H125.072L127.252 12.0078C126.746 11.6953 126.379 11.3021 126.15 10.8281C125.921 10.349 125.806 9.76562 125.806 9.07812C125.806 6.74479 126.965 5.57812 129.283 5.57812H132.033V17H129.908V12.5547H129.134ZM129.908 7.41406H129.392C128.908 7.41406 128.548 7.53906 128.314 7.78906C128.085 8.03385 127.97 8.44792 127.97 9.03125C127.97 9.59375 128.074 10.0182 128.283 10.3047C128.496 10.5859 128.856 10.7266 129.361 10.7266H129.908V7.41406Z" fill="white"/>
</svg>
